<mxfile host="Electron" agent="Mozilla/5.0 (Windows NT 10.0; Win64; x64) AppleWebKit/537.36 (KHTML, like Gecko) draw.io/24.7.17 Chrome/128.0.6613.36 Electron/32.0.1 Safari/537.36" version="24.7.17">
  <diagram name="Страница — 1" id="CQ6rzEHU1408ygSVg83e">
    <mxGraphModel dx="1193" dy="1990" grid="1" gridSize="10" guides="1" tooltips="1" connect="1" arrows="1" fold="1" page="1" pageScale="1" pageWidth="827" pageHeight="1169" math="0" shadow="0">
      <root>
        <mxCell id="0" />
        <mxCell id="1" parent="0" />
        <mxCell id="13UMp7RzYuUF1GdtTbrB-1" value="" style="endArrow=none;dashed=1;html=1;rounded=0;" edge="1" parent="1">
          <mxGeometry width="50" height="50" relative="1" as="geometry">
            <mxPoint x="159" y="480" as="sourcePoint" />
            <mxPoint x="159.29" y="99" as="targetPoint" />
          </mxGeometry>
        </mxCell>
        <mxCell id="13UMp7RzYuUF1GdtTbrB-2" value="Менеджер" style="shape=umlActor;verticalLabelPosition=bottom;verticalAlign=top;html=1;outlineConnect=0;" vertex="1" parent="1">
          <mxGeometry x="145" y="-10" width="30" height="60" as="geometry" />
        </mxCell>
        <mxCell id="13UMp7RzYuUF1GdtTbrB-3" value="view:country/show.html" style="rounded=0;whiteSpace=wrap;html=1;" vertex="1" parent="1">
          <mxGeometry x="300" width="140" height="40" as="geometry" />
        </mxCell>
        <mxCell id="13UMp7RzYuUF1GdtTbrB-4" value="view:country/edit.html" style="rounded=0;whiteSpace=wrap;html=1;" vertex="1" parent="1">
          <mxGeometry x="510" width="140" height="40" as="geometry" />
        </mxCell>
        <mxCell id="13UMp7RzYuUF1GdtTbrB-5" value="Controller:CountryController" style="rounded=0;whiteSpace=wrap;html=1;" vertex="1" parent="1">
          <mxGeometry x="746.5" y="-20" width="163" height="35" as="geometry" />
        </mxCell>
        <mxCell id="13UMp7RzYuUF1GdtTbrB-6" value="model:coyntry" style="rounded=0;whiteSpace=wrap;html=1;" vertex="1" parent="1">
          <mxGeometry x="980" y="-20" width="90" height="40" as="geometry" />
        </mxCell>
        <mxCell id="13UMp7RzYuUF1GdtTbrB-7" value="" style="endArrow=none;dashed=1;html=1;rounded=0;entryX=0.432;entryY=0.95;entryDx=0;entryDy=0;entryPerimeter=0;" edge="1" parent="1" source="13UMp7RzYuUF1GdtTbrB-11" target="13UMp7RzYuUF1GdtTbrB-3">
          <mxGeometry width="50" height="50" relative="1" as="geometry">
            <mxPoint x="360" y="420" as="sourcePoint" />
            <mxPoint x="360" y="60" as="targetPoint" />
          </mxGeometry>
        </mxCell>
        <mxCell id="13UMp7RzYuUF1GdtTbrB-8" value="" style="endArrow=classic;html=1;rounded=0;" edge="1" parent="1">
          <mxGeometry width="50" height="50" relative="1" as="geometry">
            <mxPoint x="160" y="109" as="sourcePoint" />
            <mxPoint x="355" y="109" as="targetPoint" />
          </mxGeometry>
        </mxCell>
        <mxCell id="13UMp7RzYuUF1GdtTbrB-9" value="Нажать на кнопку изменить Страну" style="edgeLabel;html=1;align=center;verticalAlign=middle;resizable=0;points=[];" vertex="1" connectable="0" parent="13UMp7RzYuUF1GdtTbrB-8">
          <mxGeometry x="0.03" y="8" relative="1" as="geometry">
            <mxPoint x="-7" as="offset" />
          </mxGeometry>
        </mxCell>
        <mxCell id="13UMp7RzYuUF1GdtTbrB-10" value="" style="endArrow=none;dashed=1;html=1;rounded=0;entryX=0.432;entryY=0.95;entryDx=0;entryDy=0;entryPerimeter=0;" edge="1" parent="1" source="13UMp7RzYuUF1GdtTbrB-43" target="13UMp7RzYuUF1GdtTbrB-11">
          <mxGeometry width="50" height="50" relative="1" as="geometry">
            <mxPoint x="360" y="560" as="sourcePoint" />
            <mxPoint x="360" y="38" as="targetPoint" />
          </mxGeometry>
        </mxCell>
        <mxCell id="13UMp7RzYuUF1GdtTbrB-11" value="" style="html=1;points=[[0,0,0,0,5],[0,1,0,0,-5],[1,0,0,0,5],[1,1,0,0,-5]];perimeter=orthogonalPerimeter;outlineConnect=0;targetShapes=umlLifeline;portConstraint=eastwest;newEdgeStyle={&quot;curved&quot;:0,&quot;rounded&quot;:0};" vertex="1" parent="1">
          <mxGeometry x="355" y="99" width="10" height="51" as="geometry" />
        </mxCell>
        <mxCell id="13UMp7RzYuUF1GdtTbrB-12" value="" style="endArrow=none;dashed=1;html=1;rounded=0;entryX=0.454;entryY=1.1;entryDx=0;entryDy=0;entryPerimeter=0;" edge="1" parent="1" source="13UMp7RzYuUF1GdtTbrB-17">
          <mxGeometry width="50" height="50" relative="1" as="geometry">
            <mxPoint x="574" y="400" as="sourcePoint" />
            <mxPoint x="573.56" y="44" as="targetPoint" />
          </mxGeometry>
        </mxCell>
        <mxCell id="13UMp7RzYuUF1GdtTbrB-13" value="" style="html=1;points=[[0,0,0,0,5],[0,1,0,0,-5],[1,0,0,0,5],[1,1,0,0,-5]];perimeter=orthogonalPerimeter;outlineConnect=0;targetShapes=umlLifeline;portConstraint=eastwest;newEdgeStyle={&quot;curved&quot;:0,&quot;rounded&quot;:0};" vertex="1" parent="1">
          <mxGeometry x="823" y="105" width="10" height="80" as="geometry" />
        </mxCell>
        <mxCell id="13UMp7RzYuUF1GdtTbrB-14" value="" style="endArrow=classic;html=1;rounded=0;" edge="1" parent="1">
          <mxGeometry width="50" height="50" relative="1" as="geometry">
            <mxPoint x="370" y="123" as="sourcePoint" />
            <mxPoint x="820" y="123" as="targetPoint" />
          </mxGeometry>
        </mxCell>
        <mxCell id="13UMp7RzYuUF1GdtTbrB-15" value="GET/client_list/edit" style="text;html=1;align=center;verticalAlign=middle;resizable=0;points=[];autosize=1;strokeColor=none;fillColor=none;" vertex="1" parent="1">
          <mxGeometry x="539" y="98" width="120" height="30" as="geometry" />
        </mxCell>
        <mxCell id="13UMp7RzYuUF1GdtTbrB-16" value="" style="endArrow=none;dashed=1;html=1;rounded=0;" edge="1" parent="1" target="13UMp7RzYuUF1GdtTbrB-17">
          <mxGeometry width="50" height="50" relative="1" as="geometry">
            <mxPoint x="570" y="480" as="sourcePoint" />
            <mxPoint x="573.56" y="44" as="targetPoint" />
            <Array as="points" />
          </mxGeometry>
        </mxCell>
        <mxCell id="13UMp7RzYuUF1GdtTbrB-17" value="" style="html=1;points=[[0,0,0,0,5],[0,1,0,0,-5],[1,0,0,0,5],[1,1,0,0,-5]];perimeter=orthogonalPerimeter;outlineConnect=0;targetShapes=umlLifeline;portConstraint=eastwest;newEdgeStyle={&quot;curved&quot;:0,&quot;rounded&quot;:0};" vertex="1" parent="1">
          <mxGeometry x="570" y="150" width="10" height="110" as="geometry" />
        </mxCell>
        <mxCell id="13UMp7RzYuUF1GdtTbrB-18" value="" style="endArrow=classic;html=1;rounded=0;dashed=1;" edge="1" parent="1" target="13UMp7RzYuUF1GdtTbrB-17">
          <mxGeometry width="50" height="50" relative="1" as="geometry">
            <mxPoint x="820" y="160" as="sourcePoint" />
            <mxPoint x="490" y="240" as="targetPoint" />
          </mxGeometry>
        </mxCell>
        <mxCell id="13UMp7RzYuUF1GdtTbrB-19" value="edit.html&amp;nbsp;" style="text;html=1;align=center;verticalAlign=middle;resizable=0;points=[];autosize=1;strokeColor=none;fillColor=none;" vertex="1" parent="1">
          <mxGeometry x="625" y="136" width="70" height="30" as="geometry" />
        </mxCell>
        <mxCell id="13UMp7RzYuUF1GdtTbrB-20" value="" style="endArrow=classic;html=1;rounded=0;" edge="1" parent="1">
          <mxGeometry width="50" height="50" relative="1" as="geometry">
            <mxPoint x="570" y="176" as="sourcePoint" />
            <mxPoint x="160" y="176" as="targetPoint" />
          </mxGeometry>
        </mxCell>
        <mxCell id="13UMp7RzYuUF1GdtTbrB-21" value="Отображается форма&amp;nbsp;" style="text;html=1;align=center;verticalAlign=middle;resizable=0;points=[];autosize=1;strokeColor=none;fillColor=none;" vertex="1" parent="1">
          <mxGeometry x="275" y="148" width="150" height="30" as="geometry" />
        </mxCell>
        <mxCell id="13UMp7RzYuUF1GdtTbrB-22" value="" style="endArrow=classic;html=1;rounded=0;" edge="1" parent="1" target="13UMp7RzYuUF1GdtTbrB-17">
          <mxGeometry width="50" height="50" relative="1" as="geometry">
            <mxPoint x="160" y="210" as="sourcePoint" />
            <mxPoint x="400" y="240" as="targetPoint" />
          </mxGeometry>
        </mxCell>
        <mxCell id="13UMp7RzYuUF1GdtTbrB-23" value="Изменение формы" style="text;html=1;align=center;verticalAlign=middle;resizable=0;points=[];autosize=1;strokeColor=none;fillColor=none;" vertex="1" parent="1">
          <mxGeometry x="265" y="178" width="130" height="30" as="geometry" />
        </mxCell>
        <mxCell id="13UMp7RzYuUF1GdtTbrB-24" value="" style="endArrow=classic;html=1;rounded=0;" edge="1" parent="1">
          <mxGeometry width="50" height="50" relative="1" as="geometry">
            <mxPoint x="166" y="240" as="sourcePoint" />
            <mxPoint x="566" y="240" as="targetPoint" />
          </mxGeometry>
        </mxCell>
        <mxCell id="13UMp7RzYuUF1GdtTbrB-25" value="Нажимает на кнопку изменить" style="text;html=1;align=center;verticalAlign=middle;resizable=0;points=[];autosize=1;strokeColor=none;fillColor=none;" vertex="1" parent="1">
          <mxGeometry x="239" y="216" width="190" height="30" as="geometry" />
        </mxCell>
        <mxCell id="13UMp7RzYuUF1GdtTbrB-26" value="" style="html=1;points=[[0,0,0,0,5],[0,1,0,0,-5],[1,0,0,0,5],[1,1,0,0,-5]];perimeter=orthogonalPerimeter;outlineConnect=0;targetShapes=umlLifeline;portConstraint=eastwest;newEdgeStyle={&quot;curved&quot;:0,&quot;rounded&quot;:0};" vertex="1" parent="1">
          <mxGeometry x="823" y="249" width="10" height="131" as="geometry" />
        </mxCell>
        <mxCell id="13UMp7RzYuUF1GdtTbrB-27" value="" style="endArrow=classic;html=1;rounded=0;exitX=1;exitY=1;exitDx=0;exitDy=-5;exitPerimeter=0;" edge="1" parent="1" target="13UMp7RzYuUF1GdtTbrB-26">
          <mxGeometry width="50" height="50" relative="1" as="geometry">
            <mxPoint x="580" y="260" as="sourcePoint" />
            <mxPoint x="820" y="265" as="targetPoint" />
          </mxGeometry>
        </mxCell>
        <mxCell id="13UMp7RzYuUF1GdtTbrB-28" value="Post/country" style="text;html=1;align=center;verticalAlign=middle;resizable=0;points=[];autosize=1;strokeColor=none;fillColor=none;" vertex="1" parent="1">
          <mxGeometry x="646" y="234" width="90" height="30" as="geometry" />
        </mxCell>
        <mxCell id="13UMp7RzYuUF1GdtTbrB-29" value="" style="endArrow=none;dashed=1;html=1;rounded=0;entryX=0.428;entryY=0.938;entryDx=0;entryDy=0;entryPerimeter=0;" edge="1" parent="1" source="13UMp7RzYuUF1GdtTbrB-31" target="13UMp7RzYuUF1GdtTbrB-6">
          <mxGeometry width="50" height="50" relative="1" as="geometry">
            <mxPoint x="1020" y="410" as="sourcePoint" />
            <mxPoint x="960" y="240" as="targetPoint" />
          </mxGeometry>
        </mxCell>
        <mxCell id="13UMp7RzYuUF1GdtTbrB-30" value="" style="endArrow=none;dashed=1;html=1;rounded=0;entryX=0.428;entryY=0.938;entryDx=0;entryDy=0;entryPerimeter=0;" edge="1" parent="1" target="13UMp7RzYuUF1GdtTbrB-31">
          <mxGeometry width="50" height="50" relative="1" as="geometry">
            <mxPoint x="1018.2800000000002" y="360" as="sourcePoint" />
            <mxPoint x="1019" y="18" as="targetPoint" />
            <Array as="points" />
          </mxGeometry>
        </mxCell>
        <mxCell id="13UMp7RzYuUF1GdtTbrB-31" value="" style="html=1;points=[[0,0,0,0,5],[0,1,0,0,-5],[1,0,0,0,5],[1,1,0,0,-5]];perimeter=orthogonalPerimeter;outlineConnect=0;targetShapes=umlLifeline;portConstraint=eastwest;newEdgeStyle={&quot;curved&quot;:0,&quot;rounded&quot;:0};" vertex="1" parent="1">
          <mxGeometry x="1014" y="300" width="10" height="33" as="geometry" />
        </mxCell>
        <mxCell id="13UMp7RzYuUF1GdtTbrB-32" value="" style="endArrow=classic;html=1;rounded=0;" edge="1" parent="1" target="13UMp7RzYuUF1GdtTbrB-51">
          <mxGeometry width="50" height="50" relative="1" as="geometry">
            <mxPoint x="833" y="258" as="sourcePoint" />
            <mxPoint x="1020" y="258" as="targetPoint" />
          </mxGeometry>
        </mxCell>
        <mxCell id="13UMp7RzYuUF1GdtTbrB-33" value="Country.update(country_params)" style="text;html=1;align=center;verticalAlign=middle;resizable=0;points=[];autosize=1;strokeColor=none;fillColor=none;" vertex="1" parent="1">
          <mxGeometry x="905" y="236" width="200" height="30" as="geometry" />
        </mxCell>
        <mxCell id="13UMp7RzYuUF1GdtTbrB-34" value="" style="endArrow=classic;html=1;rounded=0;dashed=1;" edge="1" parent="1">
          <mxGeometry width="50" height="50" relative="1" as="geometry">
            <mxPoint x="1010" y="323" as="sourcePoint" />
            <mxPoint x="833" y="323" as="targetPoint" />
          </mxGeometry>
        </mxCell>
        <mxCell id="13UMp7RzYuUF1GdtTbrB-35" value="Проверка валидации&amp;nbsp;" style="edgeLabel;html=1;align=center;verticalAlign=middle;resizable=0;points=[];" vertex="1" connectable="0" parent="13UMp7RzYuUF1GdtTbrB-34">
          <mxGeometry x="0.2881" y="-3" relative="1" as="geometry">
            <mxPoint x="14" y="-5" as="offset" />
          </mxGeometry>
        </mxCell>
        <mxCell id="13UMp7RzYuUF1GdtTbrB-42" value="" style="endArrow=none;dashed=1;html=1;rounded=0;entryX=0.432;entryY=0.95;entryDx=0;entryDy=0;entryPerimeter=0;" edge="1" parent="1" target="13UMp7RzYuUF1GdtTbrB-43">
          <mxGeometry width="50" height="50" relative="1" as="geometry">
            <mxPoint x="358" y="490" as="sourcePoint" />
            <mxPoint x="359" y="147" as="targetPoint" />
          </mxGeometry>
        </mxCell>
        <mxCell id="13UMp7RzYuUF1GdtTbrB-43" value="" style="html=1;points=[[0,0,0,0,5],[0,1,0,0,-5],[1,0,0,0,5],[1,1,0,0,-5]];perimeter=orthogonalPerimeter;outlineConnect=0;targetShapes=umlLifeline;portConstraint=eastwest;newEdgeStyle={&quot;curved&quot;:0,&quot;rounded&quot;:0};" vertex="1" parent="1">
          <mxGeometry x="354" y="331" width="10" height="80" as="geometry" />
        </mxCell>
        <mxCell id="13UMp7RzYuUF1GdtTbrB-44" value="" style="endArrow=classic;html=1;rounded=0;dashed=1;" edge="1" parent="1">
          <mxGeometry width="50" height="50" relative="1" as="geometry">
            <mxPoint x="823.0000000000002" y="349" as="sourcePoint" />
            <mxPoint x="364" y="349" as="targetPoint" />
          </mxGeometry>
        </mxCell>
        <mxCell id="13UMp7RzYuUF1GdtTbrB-45" value="Изменение данных&amp;nbsp;" style="text;html=1;align=center;verticalAlign=middle;resizable=0;points=[];autosize=1;strokeColor=none;fillColor=none;" vertex="1" parent="1">
          <mxGeometry x="460" y="318" width="130" height="30" as="geometry" />
        </mxCell>
        <mxCell id="13UMp7RzYuUF1GdtTbrB-46" value="" style="endArrow=classic;html=1;rounded=0;dashed=1;" edge="1" parent="1">
          <mxGeometry width="50" height="50" relative="1" as="geometry">
            <mxPoint x="349" y="383" as="sourcePoint" />
            <mxPoint x="159" y="383" as="targetPoint" />
          </mxGeometry>
        </mxCell>
        <mxCell id="13UMp7RzYuUF1GdtTbrB-47" value="Отображение изменений&amp;nbsp;" style="text;html=1;align=center;verticalAlign=middle;resizable=0;points=[];autosize=1;strokeColor=none;fillColor=none;dashed=1;" vertex="1" parent="1">
          <mxGeometry x="149" y="353" width="170" height="30" as="geometry" />
        </mxCell>
        <mxCell id="13UMp7RzYuUF1GdtTbrB-48" value="model: ApplicationRecord" style="rounded=0;whiteSpace=wrap;html=1;" vertex="1" parent="1">
          <mxGeometry x="1129" y="-20" width="100" height="40" as="geometry" />
        </mxCell>
        <mxCell id="13UMp7RzYuUF1GdtTbrB-49" value="" style="endArrow=none;dashed=1;html=1;rounded=0;entryX=0.5;entryY=1;entryDx=0;entryDy=0;" edge="1" parent="1" source="13UMp7RzYuUF1GdtTbrB-51" target="13UMp7RzYuUF1GdtTbrB-48">
          <mxGeometry width="50" height="50" relative="1" as="geometry">
            <mxPoint x="1180" y="520" as="sourcePoint" />
            <mxPoint x="970" y="240" as="targetPoint" />
          </mxGeometry>
        </mxCell>
        <mxCell id="13UMp7RzYuUF1GdtTbrB-50" value="" style="endArrow=none;dashed=1;html=1;rounded=0;entryX=0.5;entryY=1;entryDx=0;entryDy=0;" edge="1" parent="1" target="13UMp7RzYuUF1GdtTbrB-51">
          <mxGeometry width="50" height="50" relative="1" as="geometry">
            <mxPoint x="1179" y="400" as="sourcePoint" />
            <mxPoint x="1179" y="20" as="targetPoint" />
          </mxGeometry>
        </mxCell>
        <mxCell id="13UMp7RzYuUF1GdtTbrB-51" value="" style="html=1;points=[[0,0,0,0,5],[0,1,0,0,-5],[1,0,0,0,5],[1,1,0,0,-5]];perimeter=orthogonalPerimeter;outlineConnect=0;targetShapes=umlLifeline;portConstraint=eastwest;newEdgeStyle={&quot;curved&quot;:0,&quot;rounded&quot;:0};" vertex="1" parent="1">
          <mxGeometry x="1174" y="246" width="10" height="80" as="geometry" />
        </mxCell>
        <mxCell id="13UMp7RzYuUF1GdtTbrB-52" value="" style="endArrow=classic;html=1;rounded=0;" edge="1" parent="1">
          <mxGeometry width="50" height="50" relative="1" as="geometry">
            <mxPoint x="1170" y="312" as="sourcePoint" />
            <mxPoint x="1024" y="312" as="targetPoint" />
          </mxGeometry>
        </mxCell>
        <mxCell id="13UMp7RzYuUF1GdtTbrB-53" value="return object" style="text;html=1;align=center;verticalAlign=middle;resizable=0;points=[];autosize=1;strokeColor=none;fillColor=none;" vertex="1" parent="1">
          <mxGeometry x="1045" y="289" width="90" height="30" as="geometry" />
        </mxCell>
        <mxCell id="13UMp7RzYuUF1GdtTbrB-54" value="" style="endArrow=none;dashed=1;html=1;rounded=0;entryX=0.5;entryY=1;entryDx=0;entryDy=0;" edge="1" parent="1" target="13UMp7RzYuUF1GdtTbrB-5">
          <mxGeometry width="50" height="50" relative="1" as="geometry">
            <mxPoint x="828" y="100" as="sourcePoint" />
            <mxPoint x="680" y="240" as="targetPoint" />
          </mxGeometry>
        </mxCell>
        <mxCell id="13UMp7RzYuUF1GdtTbrB-55" value="" style="endArrow=none;dashed=1;html=1;rounded=0;entryX=0;entryY=1;entryDx=0;entryDy=-5;entryPerimeter=0;" edge="1" parent="1">
          <mxGeometry width="50" height="50" relative="1" as="geometry">
            <mxPoint x="827" y="245" as="sourcePoint" />
            <mxPoint x="827" y="185" as="targetPoint" />
          </mxGeometry>
        </mxCell>
        <mxCell id="13UMp7RzYuUF1GdtTbrB-56" value="" style="endArrow=none;dashed=1;html=1;rounded=0;entryX=0;entryY=1;entryDx=0;entryDy=-5;entryPerimeter=0;" edge="1" parent="1">
          <mxGeometry width="50" height="50" relative="1" as="geometry">
            <mxPoint x="827" y="772" as="sourcePoint" />
            <mxPoint x="827" y="632" as="targetPoint" />
          </mxGeometry>
        </mxCell>
      </root>
    </mxGraphModel>
  </diagram>
</mxfile>
